<?xml version="1.0" encoding="UTF-8"?>
<svg id="Layer_2" data-name="Layer 2" xmlns="http://www.w3.org/2000/svg" viewBox="0 0 809.99 718.88">
  <defs>
    <style>
      .cls-1 {
        fill: none;
        stroke: #0137fe;
        stroke-miterlimit: 10;
      }

      .cls-2 {
        fill: #3f4655;
      }

      .cls-2, .cls-3, .cls-4, .cls-5 {
        stroke-width: 0px;
      }

      .cls-3 {
        fill: #231f20;
      }

      .cls-4 {
        fill: #fed109;
      }

      .cls-5 {
        fill: #0137fe;
      }
    </style>
  </defs>
  <g id="Layer_4" data-name="Layer 4">
    <circle class="cls-5" cx="541.72" cy="609.86" r="109"/>
    <circle class="cls-3" cx="257.46" cy="79.1" r="79.1"/>
    <circle class="cls-5" cx="109" cy="125.5" r="109"/>
    <circle class="cls-3" cx="694" cy="631.22" r="79.1"/>
    <circle class="cls-4" cx="667.01" cy="447.08" r="142.98"/>
    <circle class="cls-4" cx="200.13" cy="254.57" r="142.98"/>
    <g>
      <g>
        <path class="cls-5" d="m639.25,292.42c1.9,1.66,1.69,14.36.73,34.19h-.1s-.76-.66-.76-.66l-.11.13c.74-15.65,1.23-32.14-.43-32.93-.23.05-.46-.01-.64-.2-.57-.54-.35-1.98.41-6.45,2.13-12.44,7.1-41.58-10.96-65.01-2.2-2.85-4.3-7.21-6.72-12.25-2.43-5.04-5.19-10.78-8.52-15.72l.75-.68c3.42,5.04,6.22,10.85,8.68,15.98,2.41,4.99,4.48,9.3,6.62,12.07,18.31,23.78,13.3,53.22,11.15,65.79-.42,2.47-.82,4.8-.71,5.47.23.01.44.09.63.27Z"/>
        <path class="cls-5" d="m639.88,326.61h.1c-.18,3.82-.4,7.92-.63,12.25-.02.49-.05.98-.08,1.47l-.27-.24-.77.83c.05-.7.08-1.41.12-2.12.18-3.43.38-7.21.57-11.07l.96-1.12Z"/>
        <path class="cls-5" d="m639.88,326.61l-.96,1.12c.02-.55.05-1.1.08-1.65l.11-.13.76.66Z"/>
        <path class="cls-5" d="m639.75,340.76l-.53.58c.02-.33.04-.67.05-1.01l.48.43Z"/>
        <path class="cls-5" d="m639.27,340.33c-.01.34-.03.68-.05,1.01l-1.06,1.16c.02-.52.05-1.05.07-1.58l.77-.83.27.24Z"/>
        <path class="cls-5" d="m638.16,342.5l1.06-1.16c-.38,7.41-.75,14.46-.91,20.13h-.14s-.68-.74-.68-.74l-.15.14c.17-5.27.48-11.65.83-18.37Z"/>
        <path class="cls-5" d="m639,326.08c-.03.55-.06,1.1-.08,1.65l-26.27,30.66.03-.12c.15-.58.29-1.25.45-1.99l25.87-30.21Z"/>
        <path class="cls-5" d="m638.28,370.6c.27,5.77-1.22,14.31-3.66,23.45l-.98-.12c2.42-9.08,3.91-17.56,3.64-23.28-.09-2.08-.08-4.95.01-8.37l.88-.81h.14c-.1,3.76-.13,6.91-.03,9.13Z"/>
        <path class="cls-5" d="m637.48,360.73l.68.74-.88.81c.01-.46.03-.93.04-1.41l.15-.14Z"/>
        <path class="cls-5" d="m638.23,340.92c-.02.53-.05,1.06-.07,1.58l-9.79,10.73-24.31,19.43c1.08-1.19,2.15-2.46,3.15-3.8l20.47-16.35,10.55-11.58Z"/>
        <path class="cls-5" d="m637.33,360.87c-.01.48-.03.95-.04,1.41l-39.72,36.79-12.21,27.52c-.01-.78-.04-1.54-.07-2.29l11.45-25.82,40.59-37.61Z"/>
        <path class="cls-5" d="m634.61,394.05h.02c-.55,4.9-2.03,9.41-4.18,13.55,1.55-4.5,2.97-9.09,4.16-13.55Z"/>
        <path class="cls-5" d="m633.63,393.93l.98.12c-1.19,4.46-2.61,9.06-4.16,13.55-.79,1.55-1.69,3.06-2.65,4.51.61-1.65,1.22-3.33,1.79-5.03,2.08-4.03,3.5-8.41,4.03-13.15Z"/>
        <path class="cls-5" d="m633.63,393.93c-.53,4.74-1.96,9.11-4.03,13.15,1.51-4.36,2.88-8.83,4.03-13.15Z"/>
        <path class="cls-5" d="m629.6,407.07c-.57,1.71-1.18,3.38-1.79,5.03-13.01,19.54-39.75,29.69-42.94,30.85.04-.36.08-.73.11-1.11,5-1.87,33.68-13.35,44.62-34.77Z"/>
        <path class="cls-5" d="m627.81,412.11c.96-1.45,1.86-2.95,2.65-4.51-4.07,11.87-9.07,22.98-13.22,28.69-4.73,6.5-10.78,13.42-16.83,18.73-.26-.24-.4-.36-.42-.38l-.32-.28c6.01-5.27,12.05-12.17,16.76-18.66,3.54-4.87,7.71-13.71,11.38-23.59Z"/>
        <path class="cls-5" d="m623.04,254.37l6.36,9.13-.23.29c-.09.12-2.32,2.87-6.05,4.95-3.43,1.9-8.77,3.53-14.95.65l-8.57,7.1,10.68.09,9.94,8.88-8.78,3.8,11.55,3.49-13.9,9.11,13.82-2.48-1.71,1.19c.01-.13.02-.2.02-.22l-1-.13s-.05.43-.13,1.11l-14.92,10.28,12.77.11-18.14,9.69,13.46.12-18.81,7.56,9.65.36-18.12,10.94-15.25,7.51-16.13,2.41-.32-.62c-.06-.11-.12-.22-.17-.32l16.39-2.44,15-7.41,15.21-9.2-11-.42,18.48-7.42-12.33-.11,18.14-9.69-12.01-.1,16.53-11.4-14.09,2.53,16.2-10.62-12.12-3.67,9.86-4.26-8.48-7.58-11.67-.1-.02-1h-.17s9.98-8.27,9.98-8.27l.3.14c10.4,5.07,18.35-3.19,19.83-4.9l-5.9-8.46c-1.9-2.21-9.19-4.59-9.27-4.62l-18.02-3.09,16.13-9.25-21.95,1.65,7.52-10.08-16.91,6.77,5.97-20.61-14.56,16.37.16-17.89-6.57,8.56.15-17.53-11.11,18.97.59-1.58-1.57,1.13-1.32-25.16-10.89,16.35-.3-14.29-6.37,25.01-1.54,1.99,8.76-34.37.38,18.46,10.79-16.22,1.42,26.79,12.18-20.82-.16,18.3,6.57-8.56-.16,18.22,15.73-17.69-6.63,22.89,18.29-7.33-8.33,11.16,24.16-1.81-17.55,10.06,15.36,2.63c.39.12,7.71,2.52,9.82,4.98Z"/>
        <path class="cls-2" d="m620.22,300.21l1,.13s-.01.09-.02.22l-1.11.76c.08-.68.13-1.07.13-1.11Z"/>
        <path class="cls-5" d="m620.09,301.32l1.11-.76c-.4,3.26-5.16,42.07-8.06,55.73l-1.36,1.6-.03.05c1.99-8.07,5.18-31.72,7.03-46.12.62-4.88,1.1-8.71,1.32-10.5Z"/>
        <path class="cls-5" d="m615.85,190.1l-2.97,2.75c-.3-.43-.59-.87-.91-1.3l3.88-1.46Z"/>
        <path class="cls-5" d="m614.89,205.15l-12.65,10.51-.64-.77,10.56-8.77-14.96-.13,14.25-13.18.14-.1c.19.27.38.54.55.81l-12.41,11.48,15.17.13Z"/>
        <path class="cls-5" d="m611.77,357.89l1.36-1.6c-.16.74-.3,1.41-.45,1.99l-.03.12-.07.08-3.6,5.97h0c1.23-2.09,2.21-4.25,2.75-6.42.01-.03.01-.06.02-.09l.03-.05Z"/>
        <path class="cls-5" d="m612.58,358.48l.07-.08c-.93,3.65-3,7.23-5.44,10.45l-1.72,1.38,3.49-5.78,3.6-5.97Z"/>
        <path class="cls-5" d="m611.74,357.94s-.01.06-.02.09c-.54,2.17-1.52,4.33-2.75,6.41-1.61,2.73-3.66,5.31-5.74,7.59l8.5-14.09Z"/>
        <path class="cls-5" d="m612.88,192.85l-.75.68c-.18-.27-.37-.54-.55-.81-.2-.27-.39-.54-.58-.81l.97-.36c.32.43.61.87.91,1.3Z"/>
        <path class="cls-5" d="m611.97,191.55l-.97.36c-2.3-3.18-4.88-5.94-7.8-7.84l.61-.8c3.08,2.03,5.78,4.94,8.17,8.28Z"/>
        <path class="cls-5" d="m611,191.92c.2.26.39.53.58.81l-.14.1-22.33,8.37,12.36-16.47-25.13,11.86,6.22-15.17-13.7,8.82.08-9.33-15.63,9.46,6.81-17.43-16.06,17.45.16-18.42-13.63,17.57-.33-.09c-.3-.08-29.42-8.38-39.76-14.51.07.01.12.01.13.01h.31s.15-.27.15-.27c.01-.02.09-.16.22-.42,9.88,5.69,35.7,13.21,38.89,14.13l13.43-17.31c.71-.01,1.11-.09,1.18-.1l-.18-.98s-.06,0-.17.02l.78-1-.16,18.78,17.91-19.46-7.68,19.64,14.65-8.87-.08,9.28,14.81-9.54-.31.74c-.24.04-.5.05-.76.04v1c.11,0,.23,0,.34-.02l-5.72,13.96,24.39-11.52-.1.6.28.17c.13.08.26.16.38.25l-11.23,14.97,19.03-7.13Z"/>
        <path class="cls-5" d="m608.98,364.44l-3.49,5.78,1.72-1.38c-1,1.34-2.07,2.61-3.15,3.8l-2.32,1.85,1.49-2.48c2.08-2.28,4.12-4.86,5.74-7.59h0Z"/>
        <path class="cls-5" d="m601.74,374.5l2.32-1.85c-4.27,4.71-8.67,8.12-9.81,8.99,1.94,9.55-9.87,18.86-12.91,21.08-.3-.28-.62-.44-.96-.44-.04,0-.08,0-.13-.01,1.58-1.12,15.22-11.12,12.96-20.73l-.08-.32.27-.2c.09-.06,5.03-3.73,9.83-8.99l-1.49,2.48Z"/>
        <path class="cls-5" d="m594.25,138.02c1.29,2.03,13.04,21.06,11.21,33.07l-1.74,11.46-1.08.51,1.84-12.11c1.82-12.06-11.03-32.33-11.16-32.54l-.1-.14.02-.18,6.71-58.41c.04-.15,2.3-9.2,2.38-19.54.08-9.47-1.69-22-10.6-27.89-.87-.58-1.92-.7-3.22-.38-9.37,2.34-29.18,27.75-57.28,73.49-1.37,2.22-2.72,4.45-4.06,6.65-2.26,2.65-3.73,4.4-4.02,4.76l-.04-.02c8.18-13.66,17.1-28.02,25.81-41.02.19.07.37.16.55.25l.46-.9c-.14-.07-.29-.14-.44-.2,15.58-23.22,30.38-41.89,38.78-43.98,1.56-.39,2.91-.21,4.01.51,17.71,11.73,9.03,46.96,8.66,48.45l-6.69,58.17Z"/>
        <path class="cls-5" d="m604.69,182.08l-.89,1.19-.18-.12.1-.61.97-.46Z"/>
        <path class="cls-5" d="m603.8,183.27l-.61.8c-.12-.09-.25-.17-.38-.25l-.28-.17.1-.6,1.08-.51-.1.61.18.12Z"/>
        <path class="cls-2" d="m600.4,455.02l-.76.66h0c.25-.22.51-.45.77-.66Z"/>
        <path class="cls-5" d="m599.99,454.64s.16.14.42.38c-.25.22-.51.45-.77.65-.06.05-.11.1-.17.14-.03.02-.05.05-.08.06l-7.62,5.51c3.14-2.83,5.44-4.88,6.63-5.94.16-.14.3-.26.41-.36.12-.1.23-.2.35-.31.17-.14.34-.28.5-.43l.32.28Z"/>
        <path class="cls-2" d="m599.67,454.36c-.16.15-.33.29-.5.43.08-.08.13-.12.15-.14l.33-.3h.02Z"/>
        <path class="cls-2" d="m599.65,455.69l-.18.13c.06-.04.11-.09.17-.14h0Z"/>
        <path class="cls-5" d="m591.77,461.39l7.62-5.51c-2.58,2.21-5.16,4.11-7.62,5.51Z"/>
        <polygon class="cls-5" points="598.2 276.47 598.22 277.47 596.84 277.46 598.03 276.47 598.2 276.47"/>
        <polygon class="cls-5" points="598.22 277.47 580.63 277.82 583.27 276.77 598.03 276.47 596.84 277.46 598.22 277.47"/>
        <path class="cls-5" d="m598.4,455.45c-1.19,1.06-3.49,3.11-6.63,5.94-1.79,1.03-3.52,1.81-5.15,2.29-9.55,2.78-17.06,5.4-26.5,13.84-9.8,8.76-42.92,17.94-44.32,18.33-11.09,3.67-25.82,2.45-34.62,1.71-3.58-.29-6.41-.54-7.38-.29-2.84.69-21.14,2.88-38.82,5-4.68.56-9.29,1.12-13.56,1.64-6.44.78-8.85,1.07-9.79,1.06-.57,0-.61-.12-.67-.31,0-.04-.02-.08-.02-.13-.79-.06-2.61-.07-6.76.11-.38.02-.76.02-1.14.02-16.62-.14-35.24-18.44-36.73-19.92l-12.26-5.39c-12.27-5.38-38.01-24.31-38.27-24.49l-.19-.14v-.24s-.75-5.29-19.14-13.94c-15.4-7.24-21.01-24.48-21.01-27.12-7.64-5.07-15.2-17.4-22.49-36.71-5.12-13.58-8.32-26.06-8.75-27.79-5.08-3.3-4.35-20.32-2.66-33.9h.08c0,.05.25.68.7,1.82-1.49,13.23-1.92,28.8,2.55,31.33l.19.1.05.21c.14.53,12.98,52.35,30.95,64.15l.04-.02.32.25-.33.43.08.38c.19-.07.27-.23.27-.3-.24,1.74,5.41,19.2,20.43,26.26,17.09,8.05,19.36,13.32,19.65,14.53,2.18,1.6,26.24,19.15,37.91,24.27l12.51,5.53c.2.2,20.39,20.36,37.18,19.67,2.63-.12,4.4-.16,5.58-.15,2.12.02,2.41.21,2.51.49,1.15-.11,3.81-.44,9.07-1.08,4.27-.51,8.9-1.07,13.56-1.63,17.66-2.12,35.93-4.32,38.7-4.98,1.13-.27,3.74-.06,7.7.28,8.72.72,23.32,1.94,34.25-1.67.36-.11,34.32-9.52,43.95-18.12,9.6-8.58,17.2-11.23,26.89-14.05,3.64-1.06,7.81-3.72,12.05-7.28Z"/>
        <path class="cls-5" d="m586.67,288.11c4.83,11.91,4.6,21.62-.66,28.86-6.47,8.88-19.46,12.36-29.23,13.71-3.78.52-7.39.78-10.46.88-.07-.09-.12-.17-.17-.24,3.7-.23,7.16-.68,10.37-1.35.39.01.8.03,1.21.03.31,0,.63,0,.96,0l-.02-.51c.52-.13,1.03-.26,1.53-.41,9.56-1.73,19.63-5.33,24.98-12.69,4.47-6.16,5.12-14.24,1.95-24.06-.13-2.41-.44-3.98-.47-4.2Z"/>
        <path class="cls-5" d="m585.54,139.86c.61,1.96,9.25,29.95,3.05,38.36-1.13,1.52-2.68,2.33-4.62,2.39l.42-1.03c1.42-.15,2.54-.8,3.4-1.96,5.99-8.11-3.12-37.23-3.21-37.53l-.02-.13c-.01-.63-1.64-63.15-7.25-71.93-.29-.44-.69-.67-1.27-.7-2.79-.18-10.25,3.97-29.72,24.71-11.26,12.02-21.49,24.25-22.34,25.28h0c1.06-1.77,2.13-3.55,3.21-5.33,10.79-12.64,39.93-45.74,48.75-45.67.06,0,.11,0,.17.01.91.06,1.6.44,2.06,1.17,5.7,8.93,7.31,68.91,7.39,72.36Z"/>
        <path class="cls-5" d="m587.15,292.31c.26,4.63-.08,12.38-3.96,19.74h0c.44-1.51.73-2.95.85-4.36,3.22-8.77,2.04-17.2,1.73-19.04l.06-.03c.51,1.25.96,2.49,1.34,3.69Z"/>
        <path class="cls-5" d="m586.67,288.11c.04.22.34,1.79.47,4.2-.38-1.2-.83-2.44-1.34-3.69-.03-.08-.07-.17-.1-.25l.92-.37s.02.05.03.07h0s0,.03,0,.04Z"/>
        <path class="cls-5" d="m586.59,287.72l.08.35s-.02-.05-.03-.07l-.92.37c.03.08.07.17.1.25l-.06.03c-1.85-.15-3.65-.24-5.39-.27l.17-.99c1.84.03,3.74.12,5.69.29l.37.03Z"/>
        <path class="cls-5" d="m585.36,426.59c.15,5.05.06,10.48-.38,15.26-.45.18-.71.26-.74.27l-.26-.02c.44-4.36.61-9.72.41-15.82h.03s.91.41.91.41l.04-.1Z"/>
        <path class="cls-5" d="m585.36,426.59l-.04.1-.91-.41.88-1.98c.03.75.06,1.51.07,2.29Z"/>
        <path class="cls-5" d="m585.29,424.3l-.88,1.98h-.03c-.07-2.13-.19-4.35-.36-6.65-.82-11.16-2.47-15.76-3.46-16.3l.1-.14c.07-.05.31-.21.67-.47,2.25,2.06,3.26,11.15,3.68,16.84.11,1.49.2,3.08.27,4.74Z"/>
        <path class="cls-2" d="m584.98,441.85c-.03.38-.07.75-.11,1.11-.18.07-.29.1-.31.11l-.32-.94s.29-.1.74-.27Z"/>
        <path class="cls-5" d="m584.56,443.06s.13-.04.31-.11c-.72,6.77-2.2,11.96-4.86,12.38-1.26.2-3.03.87-5.07,1.65-10.11,3.82-28.84,10.91-46.55-14.22-1.89,6.23-13.32,38.52-46.43,38.23h-.04c-7.88-.07-30.23-4.04-39.19-7.98-4.08-1.8-6.89-4.43-8.73-7.87-3.76-7.04-3.39-17.45-1.37-30.76,3.61-23.78,30.56-29.26,45.02-32.2.96-.19,1.86-.37,2.68-.55.59.34,1.24.5,1.93.51.07,0,.14,0,.2,0v.05c-1.29.31-2.84.63-4.61.98-14.24,2.9-40.72,8.29-44.23,31.37-3.95,26.07.71,33.7,9.51,37.56,8.88,3.9,30.99,7.83,38.8,7.9h.04c34.8.3,45.14-36.21,45.74-38.39.3-.09.6-.17.89-.29l.02.03c17.44,25.51,36,18.48,45.97,14.72,2.19-.83,3.91-1.49,5.26-1.69,1.8-.28,3.36-4.8,4.13-12.25l.26.02.32.94Z"/>
        <polygon class="cls-5" points="584.97 276.09 583.27 276.77 580.53 276.82 580.53 276.81 584.97 276.09"/>
        <path class="cls-5" d="m582.03,298.21c1.64,2.81,2.31,5.99,1.99,9.48-.49,1.35-1.08,2.69-1.8,4.03,1.45-4.94,1.09-9.32-1.06-13-3.91-6.71-12.58-9.05-13.37-9.25.71-.15,1.43-.28,2.16-.4,3.07,1.08,8.93,3.74,12.07,9.14Z"/>
        <path class="cls-5" d="m584.02,307.69c-.12,1.41-.4,2.86-.85,4.36l-.96-.29s.01-.03.01-.04c.71-1.34,1.3-2.69,1.8-4.03Z"/>
        <path class="cls-5" d="m584.38,179.58l-.42,1.03c-.11.02-.23.02-.35.02v-1c.27,0,.53,0,.77-.04Z"/>
        <path class="cls-5" d="m583.17,312.05h0c-.95,1.79-2.1,3.55-3.51,5.25-2.33,2.81-5.16,5.21-8.46,7.19l.08-.14c.06-.1.37-.68.79-1.59,2.62-1.75,4.88-3.77,6.8-6.08,1.33-1.6,2.43-3.27,3.33-4.95,0,0-.01.03-.01.04l.96.29Z"/>
        <polygon class="cls-5" points="583.27 276.77 580.63 277.82 580.55 277.82 580.53 276.82 583.27 276.77"/>
        <path class="cls-2" d="m581.34,402.72c-.36.27-.6.42-.67.47l-.56-.82s.06-.04.15-.1c.05.01.09.01.13.01.34,0,.66.16.96.44Z"/>
        <path class="cls-5" d="m580.1,402.36l.56.82-.1.14c-.07-.03-.13-.05-.19-.05-2.81-.02-6.41-3.44-10.98-7.76-4.22-4-9-8.52-14.43-11.67-3.68-2.13-8.19-5.22-12.91-8.68h.01s.74-.69.74-.69c0-.01-.02-.03-.04-.04,2.95,2.17,5.8,4.18,8.41,5.89l-.24.51.9.44.19-.4c1.21.78,2.37,1.49,3.44,2.11,5.54,3.21,10.36,7.77,14.62,11.81,4.17,3.94,7.76,7.34,10.18,7.47-.09.06-.14.09-.15.1Z"/>
        <path class="cls-5" d="m580.63,277.82l-16.98,6.78,16.88,2.79c-1.84-.04-3.63,0-5.36.13l-15.22-2.52,16.16-6.45-17.15,2.8,8.93-5.81-16.52,5.32,2.43-1.83,20.91-6.74-11.22,7.31,17.05-2.79h0s.02,1.01.02,1.01h.08Z"/>
        <path class="cls-5" d="m580.53,287.39l-.17.99-5.19-.86c1.73-.12,3.52-.17,5.36-.13Z"/>
        <path class="cls-5" d="m580.36,288.38c-3.69-.04-7.16.19-10.4.69-1.14-.39-1.89-.58-1.99-.6v-.05c2.27-.45,4.68-.75,7.2-.9l5.19.86Z"/>
        <path class="cls-5" d="m570.54,323.63c.9-1.73,6.31-12.93,2.25-21.39-2.32-4.82-7.3-7.95-14.83-9.32l-.07-.14c.44-.22.89-.43,1.35-.62,7.25,1.52,12.11,4.77,14.46,9.65,3.71,7.71.11,17.21-1.6,20.95-.49.32-1,.63-1.51.94l-.04-.06Z"/>
        <path class="cls-5" d="m570.58,323.69c.51-.31,1.02-.62,1.51-.94-.43.92-.73,1.49-.79,1.59l-.08.14c-.05.04-.11.07-.17.1l-.14.02c-.77.07-1.51.13-2.23.14.65-.32,1.29-.68,1.91-1.05Z"/>
        <path class="cls-2" d="m571.22,324.48l-.05.09h-.12c.06-.02.12-.05.17-.09Z"/>
        <path class="cls-5" d="m570.9,324.6l.14-.02c-3.17,1.88-6.78,3.37-10.83,4.49-.51.1-1.02.18-1.53.27v-.35c-.78.01-1.52,0-2.23-.04,4.58-.95,8.65-2.35,12.22-4.2.72-.01,1.46-.07,2.23-.14Z"/>
        <path class="cls-5" d="m570.54,323.63l.04.06c-.62.37-1.26.73-1.91,1.05-.31,0-.61.01-.91.01-5.06-.04-8.81-1.64-11.17-4.75-5.85-7.73-1.38-22.34.14-26.64.26-.14.53-.29.8-.42h0s.08-.04.12-.06c.06-.02.12-.05.18-.08h0s.03-.03.04-.03l.07.14c-.94,2.55-6,17.32-1.27,25.43.06.09.1.17.15.24.06.1.12.2.19.29.04.06.08.11.12.16.07.12.16.24.25.36,2.56,3.38,6.99,4.8,13.15,4.22Z"/>
        <path class="cls-5" d="m569.96,289.07c-.73.12-1.45.25-2.16.4-.04-.01-.06-.02-.06-.02l.23-.98c.11.02.86.21,1.99.6Z"/>
        <path class="cls-5" d="m567.96,288.42v.05s-.22.98-.22.98c0,0,.02.01.06.02-3.08.62-5.93,1.52-8.56,2.69-.5-.1-1-.21-1.52-.29l-.16-.03c3.14-1.53,6.61-2.66,10.4-3.41Z"/>
        <polygon class="cls-5" points="561.81 245.67 552.59 258.72 561.59 256.21 552.69 265.79 561.43 264.2 552.43 273.25 561.34 273.33 553.79 279.03 551.03 279.92 551.01 279.9 558.4 274.3 550.05 274.23 558.47 265.75 549.91 267.31 558.44 258.12 550.14 260.44 558.39 248.78 546.72 255.44 553.88 243.54 545.47 243.47 552.28 225.43 535.65 237.39 538.16 221.86 533.36 228.05 533.33 228.03 533.93 225.7 539.77 218.15 537.02 235.17 552.81 223.8 552.91 225.74 553.79 224.26 546.91 242.48 555.65 242.56 549.56 252.66 561.81 245.67"/>
        <path class="cls-5" d="m560.21,329.07c-.5.15-1.01.28-1.53.41v-.14c.51-.09,1.02-.17,1.53-.27Z"/>
        <path class="cls-5" d="m558.18,359.25c1.33,1.45,2.82,3.1-1.09,11.18l-5.08,10.45c-.28-.18-.56-.36-.85-.55l5.02-10.34c3.62-7.46,2.37-8.85,1.25-10.08-.52-.56-1.05-1.16-1.18-2.18-.34-2.67-1.03-4.02-2.4-6.68l-.46-.91c-.56-1.09-.99-1.66-1.37-2.16-.78-1.04-1.31-1.72-1.87-5.47-.73-4.8-4.37-10.02-5.03-10.92.39-.02.79-.02,1.2-.04,1.19,1.72,4.14,6.36,4.82,10.81.53,3.49.96,4.07,1.68,5.01.35.45.78,1.02,1.29,1.98l-.35.06.15.99.69-.1.15.29c1.43,2.77,2.13,4.17,2.5,7.01.09.71.46,1.12.94,1.65Z"/>
        <path class="cls-5" d="m558.68,329.48l.02.51c-.33,0-.65,0-.96,0-.41,0-.82-.02-1.21-.03.73-.14,1.45-.31,2.15-.48Z"/>
        <path class="cls-5" d="m558.68,329.34v.14c-.7.17-1.42.34-2.16.48-.5-.02-.98-.06-1.45-.11,1.18-.14,2.39-.31,3.6-.51Z"/>
        <path class="cls-5" d="m558.68,328.99v.35c-1.2.2-2.42.37-3.6.51-.7-.07-1.37-.16-2.02-.28,1.16-.18,2.29-.38,3.4-.62.71.05,1.45.05,2.22.04Z"/>
        <path class="cls-5" d="m559.24,292.16c-.45.19-.9.4-1.35.62,0,0-.03,0-.04.02l-.42-.89s.08-.05.13-.07l.16.03c.52.08,1.02.19,1.52.29Z"/>
        <path class="cls-5" d="m557.85,292.8h0c-.06.04-.12.07-.18.09l.18-.09Z"/>
        <path class="cls-5" d="m557.43,291.9l.42.89-.18.09-.12.06h0c-.27.13-.52.25-.78.37.23-.65.38-1.05.42-1.15l.07-.18.18-.09Z"/>
        <path class="cls-5" d="m557.56,291.83c-.05.02-.09.04-.13.07l-.18.09.07-.2.24.04Z"/>
        <path class="cls-5" d="m556.76,293.32c.26-.13.51-.25.78-.37-.27.14-.54.29-.8.42.01-.02.01-.03.02-.05Z"/>
        <path class="cls-5" d="m557.25,291.99l-.07.18c-.04.1-.19.5-.42,1.15-2.67,1.27-5.11,2.59-7.31,3.96,2.29-2.06,4.85-3.81,7.68-5.22.02-.02.05-.03.07-.04s.04-.02.06-.02Z"/>
        <path class="cls-5" d="m556.76,293.32s-.01.03-.02.05c-2.85,1.53-5.41,3.4-7.67,5.62-.31.31-.62.61-.9.92l.02-.04-.89-.47h0c.34-.39.7-.75,1.07-1.12.35-.35.71-.68,1.08-1.01,2.2-1.37,4.64-2.69,7.31-3.96Z"/>
        <path class="cls-5" d="m555.08,329.84c.47.05.95.09,1.45.11-3.22.67-6.67,1.12-10.37,1.35-.19-.26-.31-.41-.34-.45l-.69.51c-2,.11-4.07.15-6.2.14-.52,0-1.04-.02-1.57-.03.08-.16.13-.24.13-.25l-.87-.5s-.04.07-.07.14c0-.26-.03-.86-.02-1.74.35.66.65,1.13.81,1.37,1.41.08,8.9.43,17.75-.65Z"/>
        <path class="cls-5" d="m554.28,349.68l.32.62-.69.1-.15-.99.35-.06c.05.1.11.21.17.32Z"/>
        <path class="cls-5" d="m556.46,328.95c-1.1.24-2.23.44-3.4.62-4.1-.77-7.06-2.58-8.79-5.43-3.88-6.33-.77-16.04,1.39-21.22.01,0,.01-.02.01-.02.76-1.02,1.59-2.02,2.5-2.99-.44.84-8.01,15.6-3.05,23.7,1.99,3.27,5.81,5.05,11.33,5.33Z"/>
        <path class="cls-5" d="m553.06,329.57c.65.12,1.32.21,2.02.28-8.85,1.07-16.34.73-17.75.65-.16-.24-.45-.7-.81-1.37.05-5.06,1.12-19.33,10.77-29.73h0c-.09.19-.79,1.51-1.63,3.51,0,0,0,0-.01.02-8.19,11.04-8.21,24.89-8.13,27.56,5.65.12,10.82-.19,15.53-.92Z"/>
        <polygon class="cls-5" points="554.38 222.67 553.79 224.26 552.91 225.74 552.81 223.8 554.38 222.67"/>
        <polygon class="cls-5" points="553.79 279.03 551.36 280.86 551.33 280.87 551.03 279.92 553.79 279.03"/>
        <path class="cls-5" d="m552.01,380.88l-.19.4-.9-.44.24-.51c.29.18.57.36.85.55Z"/>
        <path class="cls-5" d="m551.03,279.92l.3.95-10.66,4.2c.06-.36.12-.74.16-1.14l10.09-3.97.08-.06.02.02Z"/>
        <path class="cls-5" d="m557.12,292.05c-2.82,1.42-5.39,3.16-7.68,5.22-8.19,5.1-13.18,10.92-14.84,17.36-1.67,6.47.55,11.94,1.92,14.49,0,.88.02,1.48.02,1.74-.03.04-.05.09-.08.15-.95-1.4-5.03-8.08-2.84-16.61,2.23-8.67,10.12-16.19,23.49-22.36Z"/>
        <path class="cls-5" d="m547.3,299.41l.89.47-.02.04c-.91.97-1.74,1.96-2.5,2.99.84-1.99,1.54-3.32,1.63-3.5Z"/>
        <path class="cls-5" d="m546.32,331.55c-.41.02-.81.02-1.2.04-.06-.09-.1-.13-.1-.14l.1-.08c.35,0,.69-.03,1.03-.06.05.07.1.15.17.24Z"/>
        <path class="cls-5" d="m545.82,330.85s.15.19.34.45c-.34.03-.68.05-1.03.06l.69-.51Z"/>
        <path class="cls-5" d="m545.12,331.37l-.1.08s.04.05.1.14c-1.39.03-2.64.04-3.73.03-2.02-.02-3.44-.09-4.05-.13,0,0,0-.02.01-.02.53.01,1.05.03,1.57.03,2.13.02,4.2-.02,6.2-.14Z"/>
        <path class="cls-5" d="m534.91,369.77c3.69,6.35,12.98,23.69,8.31,30.48-.95,1.37-2.4,2.23-4.33,2.57-2.05-.41-4.09-.65-6.11-.73l.1-.53c4.79.97,7.99.33,9.52-1.89,5.12-7.43-8.7-30.04-9.69-31.63.74.58,1.47,1.14,2.21,1.72Z"/>
        <path class="cls-5" d="m544.64,170l.18.98c-.07,0-.47.09-1.18.1l.83-1.06c.11,0,.16-.02.17-.02Z"/>
        <path class="cls-5" d="m542.8,374.48l-.74.68c-.86-.93-1.63-1.92-2.32-2.97,1.01.76,2.03,1.51,3.02,2.25.02.01.03.03.04.04Z"/>
        <path class="cls-5" d="m544.47,170.02l-.83,1.06c-2.71.11-9.95-.42-20.77-6.94-5.87-3.54-7.6-12.6-5.16-26.93,1.05-6.22,2.72-12.14,3.91-15.97.77-1.3,1.55-2.62,2.34-3.93h0c-.71,1.97-13.46,38.2-.59,45.96,12.24,7.38,19.87,6.88,21.08,6.74Z"/>
        <path class="cls-5" d="m542.06,375.16h-.01c-2.36-1.72-4.76-3.54-7.14-5.39-.77-1.33-1.3-2.17-1.41-2.34l.02-.03c2.06,1.61,4.14,3.23,6.22,4.79.69,1.05,1.46,2.04,2.32,2.97Z"/>
        <path class="cls-5" d="m542.76,374.44c-.99-.74-2.01-1.49-3.02-2.25-3.08-4.68-4.55-10.32-5.41-15.35-.38-2.19-.64-4.26-.88-6.09-.23-1.82-.43-3.39-.68-4.65-1.15-5.8,2.82-13.5,3.69-15.1.04.05.07.1.1.13l.02.32h.4s.04,0,.04,0h.02s.14.01.3.02c-.8,1.49-4.66,9.01-3.59,14.42.26,1.29.45,2.88.69,4.73.86,6.83,2.16,17.13,8.31,23.8Z"/>
        <path class="cls-5" d="m540.96,280.29c.04,1.34,0,2.55-.12,3.64l-.57.23.36.93.05-.02c-1.06,6.75-4.79,8.57-4.99,8.66l-.1.05-5.57-.05-.04-.54-1,.07.1-11.32-4.6,7.2.17-19.65-4.92,6.01.2-22.73.8.66c.17.13,1.1.89,2.48,2.11l.23,1.4.98-.16-.03-.18c5.78,5.23,16.33,15.83,16.56,23.69Zm-5.6,12.48c.66-.38,4.88-3.2,4.61-12.45-.27-8.96-15.37-22.31-19.06-25.45l-.15,17.79,4.92-6.01-.17,19.02,4.6-7.2-.12,14.25,5.37.05Z"/>
        <path class="cls-5" d="m540.26,284.15l.57-.23c-.04.4-.1.78-.16,1.14l-.05.02-.36-.93Z"/>
        <path class="cls-5" d="m538.88,402.83c-.68.12-1.43.19-2.24.18-1.19-.01-2.51-.16-3.96-.45l.08-.46c2.02.09,4.07.33,6.11.73Z"/>
        <path class="cls-5" d="m536.62,330.72l.87.5s-.05.09-.13.25h-.31s-.02,0-.02,0h-.04s-.19-.01-.19-.01l-.14-.18s-.05-.06-.09-.13v-.14s0-.06-.02-.14c.03-.07.06-.12.07-.14Z"/>
        <path class="cls-5" d="m537.35,331.47s-.01,0-.01.02c-.16-.01-.26-.01-.3-.02h.31Z"/>
        <path class="cls-5" d="m536.98,331.47h-.4s-.02-.32-.02-.32c.04.07.08.11.09.13l.14.18h.19Z"/>
        <path class="cls-5" d="m536.56,331v.14s-.05-.08-.09-.13c.03-.06.05-.11.08-.15,0,.08,0,.13,0,.14Z"/>
        <path class="cls-5" d="m534.91,369.77c-.74-.58-1.47-1.14-2.21-1.72,0,0,0-.02,0-.02-.02-.04-.04-.06-.04-.07l.84-.53c.11.17.64,1.02,1.41,2.34Z"/>
        <path class="cls-5" d="m533.52,367.4l-.02.03-.84.53s.02.03.04.07c-7.21-5.66-13.92-11.32-17.87-14.87-7.73-6.92-20.54-41.6-23.43-49.63l-14.09,60.38-1-.11v-.06s14.89-63.75,14.89-63.75l.57,1.6c.11.32,7.99,22.55,15.53,37.83,2.94,5.98,5.84,10.88,8.2,12.99,3.86,3.45,10.7,9.2,18.03,14.98Z"/>
        <polygon class="cls-5" points="533.2 357.04 532.7 357.89 519.22 349.95 508.51 338.31 508.49 338.29 518.56 341.32 505.16 318.98 516.1 327.69 509.91 309.23 511.16 311.42 510.83 308.82 519.1 319.45 516.61 300.28 522.63 307.87 522.72 296.69 529.58 301.14 529.02 293.72 530.02 293.73 530.72 303.08 523.71 298.52 523.6 310.72 518.06 303.72 520.57 322.96 511.76 311.65 518.11 330.58 508.86 323.21 520.74 343.02 511.7 340.3 519.91 349.22 533.2 357.04"/>
        <polygon class="cls-5" points="533.93 225.7 533.33 228.03 532.36 227.78 532.39 227.68 533.93 225.7"/>
        <path class="cls-5" d="m533.36,228.05l-7.44,9.63.12-13.69c-1.33,3.73-3.67,10.05-4.94,12.26l3.29,20.35c-.42-.39-.82-.75-1.18-1.06l-3.16-19.49.09-.16c1.71-2.8,5.91-14.94,5.95-15.07l1-2.89-.15,16.79,5.45-7.03-.03.1.97.25.03.02Z"/>
        <polygon class="cls-5" points="529.99 293.19 530.02 293.73 529.02 293.72 528.98 293.26 529.99 293.19"/>
        <path class="cls-2" d="m527.99,440.4l.6.9c-.29.12-.59.2-.89.29.01-.06.02-.09.02-.1l.27-1.09Z"/>
        <polygon class="cls-2" points="528.98 293.26 529.02 293.72 528.98 293.72 528.98 293.26"/>
        <path class="cls-5" d="m524.39,256.6l.03.18-.98.16-.23-1.4c.36.31.76.67,1.18,1.06Z"/>
        <path class="cls-5" d="m527.17,111.99c-1.08,1.78-2.15,3.56-3.21,5.32-.79,1.31-1.57,2.63-2.34,3.93.82-2.65,1.43-4.31,1.44-4.35l.09-.15c.29-.36,1.76-2.1,4.02-4.76Z"/>
        <path class="cls-5" d="m523.15,116.75l-.09.15s-.61,1.69-1.44,4.35c-15.79,26.52-28.46,49.65-30.3,53.02-.14-.08-.28-.16-.41-.24-.15-.09-.3-.18-.44-.29,2.37-4.34,15.96-29.19,32.64-57l.04.02Z"/>
        <polygon class="cls-5" points="510.83 308.82 511.16 311.42 509.91 309.23 508.95 306.39 510.83 308.82"/>
        <path class="cls-5" d="m495.83,414.51l-.72.69-.29-.29.09-.06c.24-.17.49-.34.74-.51l.17.17Z"/>
        <path class="cls-5" d="m482.76,401.07l12.91,13.27c-.25.18-.5.35-.74.51l-.09.06-12.38-12.74v-.05c.07,0,.13,0,.19,0l-.07-.99h-.05s.24-.06.24-.06Z"/>
        <polygon class="cls-2" points="491.13 254.72 492.04 256.32 491.17 256.82 491.11 256.72 491.13 254.72"/>
        <path class="cls-5" d="m491.13,254.72l-.02,2-7.56-13.35-11.06-24.24,10.71,7.14-6.93-21.33-27.35-22.09c.19-.1.32-.18.4-.27.12-.13.25-.26.38-.38l27.43,22.14,7.91,24.35-10.17-6.79,9.57,21,6.7,11.8Z"/>
        <path class="cls-5" d="m490.91,174.02c.13.08.27.16.41.24-.13.26-.21.4-.22.42l-.15.28h-.31s-.06-.01-.13-.02c-.04-.02-.07-.04-.11-.06-.46-.27-.88-.61-1.27-.99.55.02.97.04,1.24.05.03-.06.07-.13.11-.21.14.11.29.2.44.29Z"/>
        <path class="cls-5" d="m490.39,174.88s.07.04.11.06c-1.55-.06-16.05-.61-27.85,1.81l-.64-.66-.06-.25c10.37-2.23,22.81-2.08,27.17-1.95.39.38.81.72,1.27.99Z"/>
        <path class="cls-5" d="m490.47,173.73c-.04.08-.08.15-.11.21-.27-.01-.69-.03-1.24-.05l1.35-.16Z"/>
        <path class="cls-5" d="m482.57,401.13l.07.99c-.06,0-.12,0-.19,0-.06,0-.13,0-.2,0-.69,0-1.34-.17-1.93-.51.79-.17,1.51-.33,2.16-.49h.03s.03,0,.05,0Z"/>
        <path class="cls-5" d="m482.52,401.13h-.03c-.65.17-1.37.33-2.16.5-.4-.21-.77-.51-1.11-.87-3.05-3.17-3.87-11.55-3.88-19.54.5-2.1.88-4.27,1.17-6.35-.41,9.2-.2,21.44,3.43,25.2.75.79,1.6,1.13,2.59,1.06Z"/>
        <path class="cls-5" d="m477.31,363.92h0c-.03.3-.55,4.95-.81,10.86v.02s-.01.04,0,.06c-.29,2.08-.67,4.25-1.17,6.35-.01-2.21.05-4.37.15-6.39v-.04s0-.04,0-.05c.77-5.74.83-10.76.83-10.87v-.05s1,.11,1,.11Z"/>
        <path class="cls-2" d="m477.31,363.93c0,.7-.09,5.43-.81,10.85.26-5.92.78-10.56.81-10.85Z"/>
        <path class="cls-5" d="m476.31,363.81v.05c0,.11-.07,5.13-.83,10.87.26-5.86.78-10.44.83-10.92Z"/>
        <path class="cls-5" d="m475.47,374.82c-.1,2.02-.16,4.18-.15,6.39-1.19,4.95-3.1,9.41-6.14,10.91-1.05.52-2.25.74-3.51.73-7.2-.06-16.83-7.58-19.23-9.55-.73,1.72-3.13,6.59-9.32,13.52h-1.38c6.02-6.58,9.07-11.75,10.02-14.51l.24-.7.56.47c.15.13,14.93,12.68,22.18,9.13,3.92-1.92,5.81-9.65,6.73-16.4Z"/>
        <polygon class="cls-5" points="466.03 267.32 466.06 267.41 465.1 267.7 465.1 267.69 464.75 265.45 466.03 267.32"/>
        <path class="cls-5" d="m461.47,252.39l4.56,14.93-1.27-1.87.35,2.24-4.59-15.02-8.99-30.79-6.88,17.52-7.54-26.79-6.96-25.23c.33-.08.65-.14.97-.22l6.95,25.19,6.73,23.91,6.86-17.47,9.81,33.6Z"/>
        <path class="cls-5" d="m462.65,176.75c-.39.08-.78.16-1.16.25l-.2-.2.72-.7.64.66Z"/>
        <path class="cls-5" d="m461.95,175.84l.06.25-.72.7.2.2c-4.9,1.11-9.22,2.76-11.8,5.22l-.44-.35-.63.77.28.22c-1.36.68-5.67,1.66-14.56,3.6-1.06.23-2.14.47-3.24.7l-.14-.5-.96.27.13.45c-6.63,1.47-13.43,3.03-17.92,4.44l-.07-.43-.99.16.09.59c-10.32,3.55-22.31,13.58-22.43,13.69-.06.05-3.47,2.74-9.4,5.29l-.33-.48-.83.55.22.32c-4.13,1.69-9.38,3.25-15.48,3.85-2.77.27-5.83.34-9.15.11l.15-.15-.7-.72v-.2c3.48.3,6.68.24,9.55-.04,15.42-1.48,25.24-9.23,25.34-9.31.11-.1,12.68-10.62,23.31-14.06,5.45-1.76,14.57-3.75,22.63-5.51,6.77-1.48,13.78-3.01,14.45-3.59,2.79-2.96,7.77-4.85,13.36-6.05Z"/>
        <path class="cls-5" d="m446.53,331.56c5.76,8.51,7.26,15.18,4.46,19.86l-.05-.2c-.11-.41-.22-.81-.34-1.21,4.45-10.14-12.45-27.31-14.16-29.01h1.42c1.66,1.73,5.42,5.78,8.67,10.57Z"/>
        <path class="cls-5" d="m450.99,351.42l.04.15-.31.2c-.05.03-1.23.76-3.28,1.78v-.29s-1,0-1,0v.8c-3.84,1.85-9.97,4.34-17.18,5.65.94-.5,1.83-1.01,2.65-1.56,9.39-2.19,16.41-6.13,17.95-7.03l.16-.03.85.53c.04-.06.08-.13.11-.19Z"/>
        <path class="cls-5" d="m450.94,351.22l.05.2c-.03.06-.07.13-.11.19l-.85-.53c.22-.35.41-.71.57-1.08.12.4.23.8.34,1.21Z"/>
        <path class="cls-5" d="m450.6,350.01c-.16.37-.35.73-.57,1.08l-.16.03c-2.12-7.81-7.59-13.05-14.63-16.5t0-.01c-.85-1.09-1.53-1.75-1.64-1.86,8.89,3.82,14.65,9.64,17.01,17.27Z"/>
        <path class="cls-5" d="m449.7,182.21c-.13.12-.26.25-.38.38-.08.09-.21.17-.4.27l-.28-.22.63-.77.44.35Z"/>
        <path class="cls-5" d="m447.44,353.55l-.12,14.25-6.08,6.6-21.63,10.18,12.47-9.86c-3.08.56-8.83,1.65-10.29,2.22-.43.17-.73.1-.89-.19-.23-.46-.35-.7,7.65-6.05l-17.28,2.1,9.75-4.09-30.44-.26,7.66-3.24-15.14-.13,10.36-4.67-14.62-.13,5.6-3.74-15.74-1.68,7.24-3.24-13.18-3.26,9.27-3.39-15.27-1.07,15.91-7.39-6.9-.06,12.47-12.04-8.82,4.19,3.61-8.15-9.32-.08,6.66-5.32-16.61-.14,16.89-4.66-13.66-2.05,8.89-7-5-.04,2.97-8.85-13.48-.12,12.79-4.95-11.55-4.22,18.78-6.91-8.12-3.7,17.18-3.42-4.58-2.7,18.33.16-2.86-9.53,12.42,9.13.05-5.65,16.77,15.46.07-7.6,11.25,17.97-.11,1.71-10.17-16.25-.06,6.44-16.77-15.46-.05,5.34-11.59-8.51,2.39,7.96-15.96-.14,3.63,2.13-16.73,3.32,7.51,3.43-18.49,6.81,11.48,4.2-10.4,4.02,9.63.08-2.97,8.85,6.46.06-9.29,7.34,16.02,2.39-14.56,4.02,12.29.11-6.66,5.32,8.03.07-3.13,7.07,11.91-5.67-7.49,7.24-7.62,7.36,8.89.08-16.42,7.63,16.08,1.13-10.6,3.88,12.82,3.18-6.5,2.9,14.79,1.58-5.19,3.47,15.92.14-10.35,4.67,15.41.13-7.66,3.24,30.47.26-7.6,3.18,14.34-1.75-1.76,1.16c-2.72,1.8-5.62,3.78-7.4,5.08,3.62-.87,10.06-1.98,10.4-2.05l1.94-.33-8.75,6.92,13.68-6.44,5.59-6.12.12-13.36c.35-.18.69-.34,1-.5Z"/>
        <path class="cls-5" d="m447.44,353.26v.29c-.31.16-.66.32-1.01.5v-.8s1.01,0,1.01,0Z"/>
        <path class="cls-5" d="m435.24,334.61c2.07,2.58,5.17,7.49,4.4,12.94-.57,4.04-3.17,7.59-7.72,10.59-.98.23-1.98.43-3.02.62,5.85-3.13,9.12-6.94,9.75-11.35.95-6.68-4.58-12.75-5.6-13.81.74.31,1.47.64,2.18.99t0,.01Z"/>
        <path class="cls-5" d="m437.33,396.82l-.83.69c.22-.24.42-.47.63-.69h.2Z"/>
        <path class="cls-5" d="m437.86,321.01h-1.42c-.08-.1-.13-.14-.14-.15l.7-.71s.33.32.86.87Z"/>
        <path class="cls-5" d="m435.75,396.81h1.38c-.2.24-.4.47-.63.71l-14.36,12.12-.12-.1c5.17-4.15,9.36-8.08,12.7-11.63.36-.38.7-.73,1.02-1.09Z"/>
        <path class="cls-5" d="m438.02,248.02l-5.66,31.42-.55,8.08h-.09s-.82-1.32-.82-1.32l.47-6.88,5.13-28.48-12.87,12.24,3.99-23.81-10.73,11.75,6.77-28.54-9.19,12.98.19-21.82-3.39-21.5c.18-.08.37-.14.55-.2.13-.04.27-.09.41-.13l3.43,21.75-.16,18.71,10.33-14.58-7.07,29.8,10.42-11.4-4.05,24.2,12.91-12.28Z"/>
        <path class="cls-5" d="m422.15,409.63l14.36-12.12c-3.97,4.37-9.41,9.51-16.83,15.15l2.47-3.02v-.02Z"/>
        <path class="cls-5" d="m437.22,311.86l-.07,8.14-.15.14-.7.71s.06.05.14.14h-.3s.08-9.05.08-9.05l-5.96-16.39.53-7.64.08.13.85-.53h.09s-.54,7.9-.54,7.9l5.95,16.45Z"/>
        <path class="cls-5" d="m404.53,396.54l31.22.27c-.32.36-.66.71-1.02,1.09l-.11-.1-33.16-.29,14.5-10.43-24.85-.22,15.47-12.35-16.83-.15-39.91-5.6,25.9-3.92-9.19-4.74-26.17-11.96,21.22-15.34-16.53,8.37-.05-.02.13-.03-.24-.97.02-.08.06.02,21.83-11.05.51.85-24.97,18.05,24.62,11.25,11.96,6.15-22.18,3.37,33.05,4.63,19.59.17-15.48,12.35,25.09.22-14.49,10.43Z"/>
        <path class="cls-5" d="m434.62,397.8l.11.1c-3.34,3.55-7.54,7.48-12.7,11.63l-.66-.54h0s13.26-11.2,13.26-11.2Z"/>
        <path class="cls-5" d="m432.84,464.64l.61.8-20.86,16.05,4.89-11.15-17.66,5.88,16.66-18.66-16.22,7.76,12.64-21.22-17.05,7.8,16.75-20.8-14.25,6.15,18.03-22.14c1.14-.81,2.22-1.63,3.28-2.43l-17.96,22.04,14.21-6.13-16.62,20.64,16.1-7.37-12.59,21.13,17.73-8.49-17.48,19.58,16.24-5.4-4.22,9.63,17.76-13.68Z"/>
        <path class="cls-5" d="m435.23,334.6c-.71-.35-1.44-.68-2.18-.99l-.16-.16.69-.72h0c.11.12.79.79,1.64,1.87Z"/>
        <path class="cls-5" d="m433.58,332.73l-.69.72.16.16c-3.46-1.46-7.21-2.54-11.09-3.34-.68-.5-1.39-.98-2.14-1.48,5.19.9,9.79,2.22,13.76,3.93Z"/>
        <path class="cls-5" d="m421.96,330.28c6.53,4.77,9.7,9.66,9.42,14.61-.15,2.73-1.32,5.17-2.92,7.26.33-.89.57-1.89.7-2.98.69-1.34,1.14-2.79,1.23-4.33.27-5.02-3.35-10.05-10.8-15,.8.14,1.59.28,2.38.44Z"/>
        <polygon class="cls-5" points="430.9 286.2 431.72 287.51 430.87 288.04 430.79 287.91 430.9 286.2"/>
        <path class="cls-5" d="m428.9,358.77c1.03-.19,2.03-.39,3.02-.62-.82.54-1.71,1.06-2.65,1.56-.01,0-.02,0-.04,0l-.46-.87s.08-.04.12-.07h0s0,0,0,0Z"/>
        <path class="cls-5" d="m430.98,186.66l.14.5c-.32.08-.64.14-.97.22l-.13-.45.96-.27Z"/>
        <path class="cls-2" d="m429.26,359.7s-.02,0-.03.02h0s.03,0,.04-.02Z"/>
        <path class="cls-5" d="m428.76,358.84l.46.87c-3.16.58-6.52.93-10,.9-.55,0-1.1-.02-1.65-.04.2-.09.87-.41,1.84-.95,3.28.02,6.47-.31,9.47-.85-.04.03-.08.05-.12.07Z"/>
        <path class="cls-5" d="m425.03,355.58c.06,0,.13-.02.2-.02-2.11,1.83-4.31,3.21-5.82,4.06-.67,0-1.35-.02-2.03-.06.87-.43,3.75-1.94,6.58-4.27.34.17.7.29,1.07.29Z"/>
        <path class="cls-5" d="m422.15,409.63v.02s-4.15,3.49-4.15,3.49l1-1.23c1.05-.8,2.05-1.59,3.03-2.38l.12.1Z"/>
        <path class="cls-5" d="m422.14,409.65l-2.47,3.02c-1.06.8-2.14,1.62-3.28,2.43l1.61-1.96,4.14-3.49Z"/>
        <path class="cls-5" d="m421.38,409l.66.54c-.98.79-1.98,1.58-3.03,2.38l2.38-2.92Z"/>
        <path class="cls-5" d="m421.38,409l-2.38,2.92c-2.31,1.76-4.79,3.57-7.46,5.39h0s9.83-8.31,9.83-8.31h0Z"/>
        <path class="cls-5" d="m421.96,330.28c-.79-.16-1.58-.3-2.38-.44-.63-.42-1.28-.84-1.97-1.26-.24.16-.63.41-1.14.78-.48-.06-.97-.13-1.45-.19.47-.36.91-.66,1.26-.91,1.21.16,2.39.34,3.54.54.75.5,1.46.98,2.14,1.48Z"/>
        <path class="cls-5" d="m419,411.92l-1,1.23-5.92,5s-.03.03-.05.04l-.03.02s-.08.06-.13.09l-1.84-.02c.5-.3.97-.59,1.41-.9.04-.03.07-.05.11-.08,2.67-1.82,5.15-3.63,7.46-5.39Z"/>
        <path class="cls-5" d="m417.87,327.57c.68.41,1.32.82,1.95,1.23-1.15-.2-2.33-.38-3.54-.54.59-.4.99-.64,1.07-.69l.26-.16.26.16Z"/>
        <path class="cls-5" d="m418,413.15l-1.61,1.96c-1.37,1.01-2.82,2.03-4.32,3.04l5.92-5Z"/>
        <path class="cls-5" d="m417.38,359.56c.68.04,1.36.05,2.03.06-.96.54-1.64.87-1.84.95-.18-.01-.36-.01-.54-.03-.58-.38-1.13-.75-1.67-1.12.66.07,1.33.11,1.98.15,0,0,0,.01.02.01s.01,0,.02,0Z"/>
        <path class="cls-5" d="m417.61,328.58c.69.42,1.34.84,1.97,1.26-1.03-.18-2.07-.34-3.11-.48.5-.37.9-.62,1.14-.78Z"/>
        <path class="cls-5" d="m417.58,360.57s-.03.02-.04.02l-.25.12-.23-.15s0-.01-.02-.02c.18.02.36.02.54.03Z"/>
        <path class="cls-2" d="m417.38,359.56s-.01,0-.02,0,0-.01-.02-.01h.04Z"/>
        <path class="cls-5" d="m417.34,359.56c-.65-.04-1.32-.08-1.98-.15-6.63-4.75-9.94-9.84-9.84-15.17.14-7,6.09-12.5,9.5-15.08.48.06.97.13,1.45.19-3,2.14-9.81,7.81-9.95,14.91-.1,5.33,3.54,10.46,10.82,15.28Z"/>
        <path class="cls-5" d="m415.37,359.41c.54.37,1.09.75,1.67,1.12-3.14-.17-6.34-.67-9.55-1.6-11.57-3.39-21.02-11.75-28.14-24.89-.74-1.36-1.46-2.77-2.14-4.23l-.27-.6.64-.1c.17-.03,16.37-2.74,33.39-1.41,1.84.15,3.62.33,5.33.56-.35.25-.78.55-1.26.91-.81-.09-1.61-.17-2.42-.25v-.44c-1.6-.01-3.16.02-4.68.09-.24-.01-.48-.02-.71-.04l-.45-.8c-.09.06-.54.32-1.24.74-12.95-.45-24.33,1.1-27.13,1.52,6.92,14.43,16.36,23.69,28.07,27.56.26.12.53.23.8.34l.03-.07c.16.05.31.1.47.14,2.54.74,5.09,1.21,7.6,1.45Z"/>
        <path class="cls-2" d="m411.99,418.2l-.1.09h-.03c.05-.03.09-.06.13-.09Z"/>
        <path class="cls-5" d="m410.02,418.28l1.84.02c-8.49,5.72-26.07,10.8-61.74,2.77-21.37-4.82-39.39-12.18-39.57-12.25-15.14-3.16-31.39-19.93-48.21-49.82-1.51-2.68-2.95-5.35-4.33-7.98l.24-.13.82.58.21-.29c12.84,24.3,31.67,52.52,51.56,56.68.25.09,15.29,6.24,34.17,10.97,1.75.44,3.54.86,5.35,1.27,33.59,7.57,50.89,3.44,59.66-1.81Z"/>
        <path class="cls-5" d="m412.61,328.92v.56c-2.5-.01-4.91.07-7.18.23,1.09-.68,1.8-1.08,1.83-1.1.22,0,.44-.03.67-.03,1.55.08,3.11.2,4.68.35Z"/>
        <path class="cls-5" d="m412.61,328.48v.44c-1.57-.15-3.13-.27-4.68-.35,1.52-.07,3.08-.1,4.68-.09Z"/>
        <path class="cls-5" d="m411.54,417.3s-.07.05-.11.08c-.44.31-.91.6-1.41.9l-33.64-.29.07-8.4-31.3,8.65,9.44-9.01-20.85-.18,5.83-8.16-9.56-.08.09-10.51-13.99-.12.07-8.32-15.01-.13,9-11.1-24.69-5.32,29.26-6.12-29.33-7.93,31.45-3.89.13.49.06.49-26.45,3.27,28.43,7.69-28.74,6,21.68,4.68-8.7,10.75,13.93.12-.07,8.32,13.99.12-.09,10.51,10.48.09-5.83,8.16,21.4.19-8.34,7.97,28.73-7.95-.08,8.73,34.14.3h0Z"/>
        <path class="cls-5" d="m412.16,191.4l.07.43c-.14.04-.28.09-.41.13-.18.06-.37.12-.55.2l-.09-.59.99-.16Z"/>
        <path class="cls-5" d="m407.64,356.96l-.34.86c-.28-.08-.56-.16-.83-.27-13.99-5.97-24.84-23.17-24.95-23.35l-.32-.5.55-.23c.11-.04,9.46-3.74,23.35-4.75-.5.32-1.1.7-1.74,1.14-10.85,1-18.57,3.56-20.67,4.32,1.2,1.82,5.58,8.16,11.73,13.92.49.46,1.28,1.31,1.93,1.73h0c3.38,2.9,7.21,5.51,11.28,7.12Z"/>
        <path class="cls-2" d="m407.3,357.82l-.03.07c-.27-.1-.54-.21-.8-.34.27.1.55.18.83.27Z"/>
        <path class="cls-5" d="m407.22,328.53l.04.07c-.73.03-1.45.08-2.15.13.15-.1.29-.19.42-.27.56.01,1.12.04,1.69.06Z"/>
        <path class="cls-5" d="m406.77,327.73l.45.8c-.57-.02-1.13-.05-1.69-.06.69-.42,1.15-.68,1.24-.74Z"/>
        <path class="cls-5" d="m405.11,328.73c.7-.05,1.42-.1,2.15-.13-.03.02-.74.42-1.83,1.1-.7.05-1.39.11-2.06.17.64-.44,1.24-.83,1.74-1.14Z"/>
        <path class="cls-5" d="m403.37,329.88c.67-.06,1.36-.12,2.06-.17-3.66,2.36-11.56,8-11.71,13.18,0,.16,0,.31,0,.46.03,1.92.7,4.25,2.84,5.62-.65-.42-1.2-.85-1.69-1.31-1.45-1.36-2.17-2.94-2.16-4.66v-.14c.15-5.03,6.54-10.17,10.65-12.98Z"/>
        <path class="cls-5" d="m396.36,349.84h0c-.65-.41-1.44-1.25-1.93-1.72.62.59,1.27,1.16,1.93,1.72Z"/>
        <path class="cls-5" d="m389.68,226.51l-.21,23.86-11.31-13.46-20.1-9.25,10.99,14.76-18.5-4.57,9.3,11.72-19.13-5.98,8.07,11.42-19.27-8.52,11.46,14.81-22.97-10.91,12.38,10.24-24.07-3.78,9.9,9.16-16.61-4.16c-1-.27-1.91-.84-2.61-1.61l-.08-.09,15.75,3.95-9.43-8.73,23.71,3.73-15.47-12.78s.07-.04.1-.05l26.04,12.36-11.31-14.63,19.57,8.66-7.69-10.88,18.86,5.88-9.1-11.47,18.63,4.6-11.67-15.67,23.93,11.08,9.65,11.48.18-20.85-10.19-15.3c.32-.13.64-.25.94-.39l10.25,15.39Z"/>
        <path class="cls-5" d="m379.11,210.64l.33.48c-.3.14-.62.26-.94.39l-.22-.32.83-.55Z"/>
        <path class="cls-5" d="m353.3,214.61l.7.72-.15.15c-.45-.03-.9-.07-1.35-.12.49-.45.77-.71.8-.74Z"/>
        <path class="cls-5" d="m353.31,214.41v.2s-.31.3-.81.74c-13.82-1.34-31.74-8.22-51.01-28.91-5.42-5.81-11.04-10.28-16.47-14.59-3.01-2.39-5.85-4.63-8.46-6.97.06.02.1.03.11.03l.29-.96.03-.03c.05.05.11.09.16.14,2.61,2.34,5.47,4.61,8.49,7.01,5.47,4.34,11.12,8.82,16.58,14.68,19.41,20.85,37.39,27.52,51.09,28.66Z"/>
        <path class="cls-5" d="m352.51,215.35c.45.05.9.09,1.35.12-1.26,1.19-10.24,9.7-21.62,18.04l-.5-.86-.32.19c10.27-7.49,18.55-15.09,21.09-17.49Z"/>
        <polygon class="cls-2" points="344.92 340.17 345.16 341.14 345.03 341.17 343.27 340.59 344.92 340.17"/>
        <polygon class="cls-5" points="345.03 341.17 317.12 348.34 317 347.86 316.94 347.36 343.27 340.59 345.03 341.17"/>
        <polygon class="cls-5" points="344.94 340.09 344.92 340.17 343.27 340.59 326.81 335.18 331.63 327.72 320.11 327.62 327.51 316.21 309.4 316.05 327.8 307.22 318.97 291.88 311.44 278.57 299.37 264.51 301.7 265.69 312.26 277.99 319.84 291.38 329.2 307.65 313.72 315.09 329.35 315.22 321.94 326.64 333.46 326.74 328.36 334.64 344.94 340.09"/>
        <path class="cls-5" d="m331.73,232.65l.5.86s-.01,0-.02,0l-24.08,14.25c-1.74.72-3.41,1.32-5.02,1.82l4.87-2.88c7.9-3.3,16.15-8.56,23.43-13.88l.32-.19Z"/>
        <path class="cls-5" d="m311.22,246.06l-.05-.02.22.17.09.08c-1.14.54-2.25,1.04-3.34,1.48l24.08-14.25c-.7.51-1.41,1.03-2.13,1.54-6.73,4.79-12.89,8.52-18.49,11.17l-.38-.17Z"/>
        <path class="cls-5" d="m307.98,246.71l23.43-13.88c-7.28,5.32-15.53,10.58-23.43,13.88Z"/>
        <polygon class="cls-5" points="328.3 278.01 327.85 278.9 301.7 265.69 300 263.71 328.3 278.01"/>
        <polygon class="cls-2" points="316.94 347.36 317 347.86 316.88 347.37 316.94 347.36"/>
        <path class="cls-5" d="m311.6,246.24s0,0-.01,0l-.37-.18.38.17Z"/>
        <path class="cls-5" d="m311.22,246.06l.37.18s-.06.03-.1.05h0s-.09-.08-.09-.08l-.17-.15Z"/>
        <polygon class="cls-5" points="311.22 246.06 311.39 246.21 311.17 246.04 311.22 246.06"/>
        <path class="cls-5" d="m308.13,247.78l-18,10.66-1.38-.35,14.36-8.5c1.6-.5,3.28-1.09,5.02-1.82Z"/>
        <path class="cls-5" d="m307.98,246.71l-4.87,2.88c-3.56,1.08-6.8,1.61-9.74,1.59-1.63-.01-3.16-.2-4.6-.56-3.39-.84-6.36-1.49-8.97-2.06-7.49-1.64-12.01-2.62-15-5.63-2.85-2.84-4.3-7.38-5.54-17.33-2.56-20.51,5.81-59.08,6.86-63.76.33.09.65.18.96.27-1.09,4.89-9.36,43.09-6.83,63.37,2.29,18.28,4.96,18.86,19.77,22.1,2.62.57,5.59,1.23,8.99,2.07,5.45,1.35,12.07-.06,18.97-2.94Z"/>
        <path class="cls-5" d="m297.04,271.17l6.09,14.81-8.72-.08,8.54,14.43-13.91,6.98,4.02,9.55-21.17-.18,9.98,5.39-21.66,9.32,10.64,3.73-11.56,16.05c-.18-.33-.35-.66-.52-.99l10.49-14.56-11.79-4.14,22.12-9.51-11.73-6.32,23.69.21-3.79-9,13.79-6.93-8.9-15.03,8.98.08-5.59-13.61.09-8.49,1,.51-.09,7.79Z"/>
        <polygon class="cls-5" points="300 263.71 301.7 265.69 299.37 264.51 297.66 262.53 300 263.71"/>
        <polygon class="cls-5" points="298.06 261.45 300 263.71 297.66 262.53 297.14 261.92 297.14 262.26 296.14 261.76 296.16 260.97 298.06 261.45"/>
        <polygon class="cls-5" points="297.66 262.53 299.37 264.51 297.13 263.38 297.14 262.26 297.66 262.53"/>
        <polygon class="cls-5" points="297.01 260.23 298.06 261.45 296.16 260.97 296.17 259.95 296.93 260.14 297.01 260.23"/>
        <polygon class="cls-5" points="297.14 262.26 297.13 263.38 296.13 262.87 296.14 261.76 297.14 262.26"/>
        <polygon class="cls-5" points="296.17 259.25 296.93 260.14 296.17 259.95 296.17 259.25"/>
        <path class="cls-5" d="m296.17,259.95v1.02s-3.12-.78-3.12-.78l3.1,1.57v1.11s-7.35-3.7-7.35-3.7c.15-.06.25-.1.28-.11l1.06-.62,6.04,1.51Z"/>
        <path class="cls-5" d="m290.13,258.44l-1.06.62s-.13.05-.28.11l-1.22-.62c.66-.22,1.04-.37,1.06-.38l.12-.08,1.38.35Z"/>
        <path class="cls-5" d="m287.57,258.55l1.22.62c-1.43.56-7.81,2.76-15.07,1.49-2.96-.52-5.7-1.56-8.14-3.11-.99-.37-1.93-.29-2.86.26-5.43,3.14-8.08,19.92-8.11,20.09l-.04.14c-.07.15-7.23,15.03-9.02,20.24-.76,2.21-2.02,8.77-2.96,16.46,0-.03-.02-.05-.02-.06l-.93.35h-.08c1.02-8.21,2.39-15.16,3.05-17.08,1.76-5.13,8.44-19.06,9.03-20.28.22-1.4,2.89-17.42,8.6-20.73.53-.31,1.07-.5,1.63-.58-4.53-3.36-6.24-6.83-7.89-10.2-1.55-3.15-3.15-6.42-7.12-9.64-5.97-4.86-7.49-16.7-8.83-27.15-.15-1.19-.3-2.36-.46-3.51l.96-.26c.17,1.19.33,2.41.49,3.65,1.32,10.26,2.82,21.89,8.47,26.49,4.14,3.37,5.79,6.72,7.38,9.97,1.87,3.8,3.64,7.39,9.23,10.95,2.34,1.5,4.97,2.5,7.81,3.01,5.96,1.04,11.44-.4,13.68-1.13Z"/>
        <path class="cls-5" d="m288.75,258.09l-.12.08s-.4.16-1.06.38l-2.97-1.5,4.15,1.04Z"/>
        <path class="cls-5" d="m276.99,163.91l-.03.03c-.19-.06-.99-.3-2.23-.67-18.17-15.47-36.53-18.17-48.92-17.65-3.49.14-6.52,2.09-8.12,5.22-1.62,3.16-1.41,6.81.55,9.76,5.93,8.95,12.96,19.9,17.08,27.66.28,1.34.57,2.65.86,3.9-3.54-7.55-11.88-20.62-18.77-31-2.15-3.26-2.38-7.28-.61-10.77,1.76-3.44,5.12-5.61,8.97-5.76,12.93-.55,32.29,2.37,51.22,19.29Z"/>
        <path class="cls-5" d="m276.96,163.94l-.29.96s-.05-.01-.11-.03h0s-.05-.05-.07-.07c-.59-.53-1.17-1.04-1.76-1.53,1.25.37,2.04.61,2.23.67Z"/>
        <path class="cls-5" d="m276.48,164.8s.05.04.07.07c-.72-.22-4.45-1.35-9.47-2.76.07-.32.1-.49.11-.52l-.97-.22s-.04.18-.1.47c-10.31-2.9-25.25-6.79-30.88-6.73-.54.02-.98.25-1.36.74-1.43,1.9-2.35,8.17,1.4,27.28.59,3.04,1.24,6.03,1.86,8.79-.51-1.1-1.13-2.34-1.84-3.66-2.77-12.92-5.33-28.9-2.22-33.02.56-.74,1.28-1.12,2.14-1.13h.27c8.06.07,31.75,6.94,39.22,9.16.59.49,1.17,1,1.76,1.53Z"/>
        <path class="cls-5" d="m266.23,161.37l.97.22s-.04.2-.11.52c-.31-.09-.63-.18-.96-.27.06-.29.09-.45.1-.47Z"/>
        <path class="cls-2" d="m258.77,350.18c.17.33.34.66.52.99l-.21.29-.82-.58.51-.71Z"/>
        <path class="cls-5" d="m258.77,350.18l-.51.71-.24.13c-8.11-15.47-13.8-29.35-15.69-34.18.08-.71.16-1.41.25-2.1.44,1.15,6.56,17.06,16.19,35.44Z"/>
        <path class="cls-2" d="m240.51,205.58s0,.02,0,.02h0s0-.01,0-.02Z"/>
        <path class="cls-5" d="m240.51,205.58v.02s-.96.26-.96.26h0c-.54-3.99-1.13-7.65-2.03-10.42-.29-.91-.75-2.02-1.34-3.28-.29-1.25-.58-2.56-.86-3.9.71,1.32,1.33,2.55,1.84,3.66,1.66,7.31,3.18,13,3.35,13.62-.01,0,0,0,0,.02v.02Z"/>
        <path class="cls-5" d="m240.51,205.54c-.17-.62-1.7-6.3-3.35-13.62.58,1.23,1.02,2.31,1.31,3.21.91,2.81,1.5,6.44,2.04,10.41Z"/>
        <path class="cls-5" d="m237.51,195.44c.9,2.77,1.49,6.42,2.03,10.41-.18-.66-1.72-6.34-3.37-13.69.59,1.27,1.05,2.37,1.34,3.28Z"/>
      </g>
      <g>
        <polyline class="cls-1" points="461.49 177 497.34 213.31 509.77 237.19 499.09 231.39 510.35 250.18 506.27 280.01 509.56 306.62 502.31 293.98 491.14 252.95 491.13 254.72"/>
        <path class="cls-1" d="m437.86,321.01c-.54-.54-.85-.86-.86-.87"/>
        <path class="cls-1" d="m532.77,402.09c-14.27-.65-27.64,5.9-37.11,12.25"/>
        <path class="cls-1" d="m528.59,441.3c13.33-4.85,17.69-36.28,17.69-36.28-2.46-.99-4.94-1.71-7.39-2.19"/>
        <path class="cls-1" d="m532.77,402.09l-.08.46c1.45.29,2.77.44,3.96.45.81,0,1.56-.06,2.24-.18"/>
        <path class="cls-1" d="m528.59,441.3l-.6-.9-.27,1.09s-.01.04-.02.1"/>
        <path class="cls-1" d="m527.7,441.59s-.03,0-.05,0c-14.08,3.69-45.81-16.01-45.81-16.01,0,0,4.99-5.18,12.99-10.68"/>
        <polyline class="cls-1" points="510.83 308.82 508.95 306.39 509.91 309.23"/>
        <polyline class="cls-1" points="494.83 414.91 495.11 415.21 495.83 414.51 495.66 414.34"/>
        <polyline class="cls-1" points="491.11 256.72 491.17 256.82 492.04 256.32 491.13 254.72"/>
        <polyline class="cls-1" points="466.03 267.32 479.27 286.72 483.04 293.16 483.23 271.39 490.82 289.7 491.11 256.72"/>
        <polyline class="cls-1" points="437.15 320 445.42 320.07 445.82 273.96 455.25 286.5 462.84 296.41 471.16 306.89 465.1 267.7"/>
        <polyline class="cls-1" points="465.1 267.7 466.06 267.41 466.03 267.32"/>
        <path class="cls-1" d="m461.49,177c.38-.09.77-.17,1.16-.25"/>
        <line class="cls-1" x1="437" y1="320.14" x2="437.15" y2="320"/>
        <polygon class="cls-1" points="380.69 288.64 398.43 304.37 390.69 307.93 401.29 311.91 414.37 314.43 418.91 314.46 413.88 304.92 410.34 292.06 404.64 286.79 390.66 280.05 398.16 296.16 380.69 288.64"/>
        <path class="cls-1" d="m557.14,319.04c.42.53.88.84,1.38.84,1.82.02,3.32-3.92,3.37-8.78s-1.39-8.82-3.21-8.84c-1.81-.02-3.31,3.92-3.36,8.78-.03,3.03.52,5.71,1.37,7.3"/>
        <path class="cls-1" d="m429.16,349.17c.06-.53.1-1.09.1-1.66.04-4.47-1.79-8.11-4.09-8.13-2.3-.02-4.19,3.58-4.23,8.05-.03,3.75,1.25,6.91,3.02,7.85.34.17.7.29,1.07.29.06,0,.13-.02.2-.02,1.32-.12,2.5-1.43,3.23-3.4.33-.89.57-1.89.7-2.98Z"/>
      </g>
    </g>
  </g>
</svg>